<?xml version="1.0" standalone="no"?>
<!DOCTYPE svg PUBLIC "-//W3C//DTD SVG 20010904//EN"
 "http://www.w3.org/TR/2001/REC-SVG-20010904/DTD/svg10.dtd">
<svg version="1.0" xmlns="http://www.w3.org/2000/svg"
 width="512.000000pt" height="512.000000pt" viewBox="0 0 512.000000 512.000000"
 preserveAspectRatio="xMidYMid meet">
<metadata>
Created by potrace 1.11, written by Peter Selinger 2001-2013
</metadata>
<g transform="translate(0.000000,512.000000) scale(0.100000,-0.100000)"
fill="#000000" stroke="none">
<path d="M1674 4425 c-85 -18 -139 -48 -204 -114 -115 -116 -169 -279 -174
-521 -4 -166 7 -292 37 -437 8 -34 11 -66 8 -70 -3 -5 -51 -23 -106 -42 -332
-112 -585 -281 -692 -461 -72 -120 -80 -276 -21 -400 49 -101 157 -214 292
-302 124 -82 259 -144 459 -214 64 -22 76 -30 72 -45 -3 -9 -8 -28 -10 -41 -3
-13 -7 -34 -10 -49 -27 -125 -39 -442 -20 -559 65 -415 354 -583 735 -427 137
56 318 175 458 303 l63 57 42 -40 c157 -149 374 -289 532 -341 258 -86 471
-20 591 183 33 58 79 193 89 265 11 79 14 305 4 375 -4 33 -11 85 -14 115 -3
30 -8 62 -10 70 -3 8 -9 36 -13 62 l-9 47 66 23 c36 12 68 23 71 23 8 3 39 15
135 55 292 122 492 289 566 470 28 70 34 190 13 261 -68 228 -340 437 -749
575 -62 21 -99 38 -98 46 1 7 9 54 17 103 40 236 42 471 6 627 -83 362 -366
502 -721 356 -134 -55 -308 -171 -451 -299 l-69 -62 -42 39 c-23 22 -44 41
-47 45 -21 22 -158 125 -218 164 -216 139 -415 194 -578 160z m220 -166 c131
-35 339 -159 471 -281 22 -20 50 -45 62 -56 l23 -19 -26 -24 c-47 -43 -218
-252 -293 -357 -41 -57 -79 -105 -85 -107 -6 -2 -33 -6 -61 -9 -101 -12 -178
-23 -280 -42 -103 -19 -173 -34 -186 -39 -14 -5 -19 9 -32 82 -32 177 -42 384
-25 508 23 156 93 285 181 331 59 31 163 37 251 13z m1570 -8 c144 -70 208
-245 200 -551 -1 -74 -5 -148 -8 -165 -3 -16 -13 -72 -23 -123 -11 -63 -20
-91 -28 -88 -23 8 -256 54 -318 62 -15 2 -38 6 -52 8 -14 3 -56 8 -93 11 -76
7 -63 -4 -194 171 -91 123 -148 192 -221 270 -28 30 -45 57 -42 65 9 21 169
153 254 209 209 139 405 188 525 131z m-851 -518 c60 -65 237 -284 237 -292 0
-3 -130 -6 -290 -6 -159 0 -290 1 -290 3 0 8 115 154 177 225 37 44 77 90 87
103 11 13 22 24 24 24 2 0 27 -25 55 -57z m317 -466 c14 -3 30 -5 37 -6 13 -1
141 -203 214 -336 63 -116 179 -352 179 -365 0 -17 -158 -330 -225 -445 -84
-146 -154 -253 -168 -257 -52 -17 -742 -17 -809 0 -20 5 -83 101 -190 287 -77
136 -208 397 -208 416 0 23 175 360 261 504 129 214 112 198 210 202 46 3 89
6 94 8 13 4 573 -3 605 -8z m-1072 -164 c-44 -76 -103 -182 -130 -237 -28 -54
-54 -94 -58 -90 -9 9 -112 314 -124 365 -6 26 -5 27 97 48 116 24 254 49 279
50 12 1 -5 -36 -64 -136z m1402 126 c36 -5 79 -12 95 -15 17 -2 72 -13 122
-24 51 -11 95 -20 97 -20 3 0 3 -10 1 -22 -8 -39 -94 -304 -113 -346 l-18 -40
-34 72 c-42 86 -138 258 -191 344 -22 34 -36 62 -32 62 5 0 37 -5 73 -11z
m-1855 -171 c31 -111 74 -238 126 -370 l51 -129 -47 -117 c-46 -114 -127 -352
-140 -413 -6 -28 -9 -30 -38 -24 -45 10 -242 87 -318 125 -104 53 -220 133
-282 195 -151 154 -151 316 0 469 104 105 258 196 458 270 55 21 109 41 120
46 43 19 52 12 70 -52z m2417 38 c235 -78 431 -189 546 -307 218 -225 105
-468 -312 -669 -107 -51 -286 -120 -313 -120 -6 0 -18 28 -28 63 -30 106 -71
227 -125 365 l-51 132 50 128 c46 117 121 339 137 405 3 15 10 27 15 27 5 0
41 -11 81 -24z m-309 -927 c79 -237 80 -212 -6 -232 -83 -19 -223 -45 -284
-52 l-43 -5 42 67 c77 127 218 389 218 408 1 23 22 -30 73 -186z m-1782 79
c28 -57 62 -120 75 -140 13 -21 24 -40 24 -42 0 -3 25 -46 55 -96 l55 -90 -43
6 c-112 16 -346 60 -353 67 -6 6 75 271 101 332 7 17 15 38 19 48 3 9 7 17 10
17 3 0 28 -46 57 -102z m-80 -481 c86 -19 257 -45 339 -53 63 -6 53 3 191
-181 50 -68 129 -165 175 -217 46 -52 84 -98 84 -101 0 -15 -160 -149 -240
-201 -25 -16 -47 -32 -50 -36 -3 -3 -46 -27 -96 -52 -395 -199 -611 -24 -599
484 2 74 6 153 10 175 3 22 8 51 10 65 2 14 10 52 16 86 l12 61 36 -7 c20 -4
70 -15 112 -23z m1990 -98 c29 -155 31 -411 6 -522 -23 -96 -77 -203 -122
-240 -105 -87 -257 -82 -450 15 -68 34 -214 128 -252 162 -6 6 -30 27 -53 46
-81 67 -94 82 -84 95 8 11 93 110 163 190 22 25 89 114 198 262 13 18 27 32
31 31 9 -2 107 10 182 22 30 5 71 12 90 15 69 11 146 26 200 39 30 7 59 10 63
6 4 -4 17 -58 28 -121z m-791 11 c0 -7 -133 -174 -199 -250 -95 -110 -88 -104
-103 -89 -78 82 -278 326 -278 339 0 3 130 5 290 5 159 0 290 -2 290 -5z"/>
<path d="M2441 3024 c-126 -33 -259 -140 -310 -248 -93 -198 -54 -416 101
-563 290 -274 769 -92 804 305 24 273 -183 508 -456 517 -52 2 -106 -2 -139
-11z"/>
</g>
</svg>
